<svg xmlns="http://www.w3.org/2000/svg" xmlns:xlink="http://www.w3.org/1999/xlink" version="1.1" id="asanoha" class="bgpattern" width="100%" height="100%">
    <defs>
      <pattern id="asanoha-pattern" x="0" y="0" width="144" height="150" patternUnits="userSpaceOnUse" viewBox="0 0 184 192">
        <path fill="#FFFFFF" d="M0 192h16.1c0-0.1 0-0.1 0-0.2 0-1.3 1.1-2.4 2.4-2.4 1.3 0 2.4 1.1 2.4 2.4 0 0.1 0 0.1 0 0.2h32c0-0.1 0-0.1 0-0.2 0-1.3 1.1-2.4 2.4-2.4 1.3 0 2.4 1.1 2.4 2.4 0 0.1 0 0.1 0 0.2h32c0-0.1 0-0.1 0-0.2 0-1.3 1.1-2.4 2.4-2.4s2.4 1.1 2.4 2.4c0 0.1 0 0.1 0 0.2h32c0-0.1 0-0.1 0-0.2 0-1.3 1.1-2.4 2.4-2.4 1.3 0 2.4 1.1 2.4 2.4 0 0.1 0 0.1 0 0.2h32c0-0.1 0-0.1 0-0.2 0-1.3 1.1-2.4 2.4-2.4 1.3 0 2.4 1.1 2.4 2.4 0 0.1 0 0.1 0 0.2H184v-1.1h-14.9l14.8-8.6 0.1 0v-20.1c0 0-0.1 0-0.1 0 -1.3 0-2.4-1.1-2.4-2.4s1.1-2.4 2.4-2.4c0 0 0.1 0 0.1 0v-20.1l-0.1 0 -14.8-8.6H184v-1.9h-14.9l14.8-8.6 0.1 0V98.2c0 0-0.1 0-0.1 0 -1.3 0-2.4-1.1-2.4-2.4 0-1.3 1.1-2.4 2.4-2.4 0 0 0.1 0 0.1 0V73.4l-0.1 0 -14.8-8.6H184v-1.9h-14.9l14.8-8.6 0.1 0V34.2c0 0-0.1 0-0.1 0 -1.3 0-2.4-1.1-2.4-2.4s1.1-2.4 2.4-2.4c0 0 0.1 0 0.1 0V9.4l-0.1 0 -14.8-8.6H184V0h-16.1c-0.1 1.3-1.1 2.2-2.4 2.2 -1.3 0-2.3-1-2.4-2.2h-32c-0.1 1.3-1.1 2.2-2.4 2.2 -1.3 0-2.3-1-2.4-2.2h-32c-0.1 1.3-1.1 2.2-2.4 2.2s-2.3-1-2.4-2.2h-32c-0.1 1.3-1.1 2.2-2.4 2.2 -1.3 0-2.3-1-2.4-2.2h-32c-0.1 1.3-1.1 2.2-2.4 2.2 -1.3 0-2.3-1-2.4-2.2H0v0.8h14.9L0.1 9.4 0 9.4v20.1c0 0 0.1 0 0.1 0 1.3 0 2.4 1.1 2.4 2.4s-1.1 2.4-2.4 2.4c0 0-0.1 0-0.1 0v20.1l0.1 0 14.8 8.6H0v1.9h14.9L0.1 73.4l-0.1 0v20.1c0 0 0.1 0 0.1 0 1.3 0 2.4 1.1 2.4 2.4 0 1.3-1.1 2.4-2.4 2.4 0 0-0.1 0-0.1 0v20.1l0.1 0 14.8 8.6H0v1.9h14.9l-14.8 8.6 -0.1 0v20.1c0 0 0.1 0 0.1 0 1.3 0 2.4 1.1 2.4 2.4s-1.1 2.4-2.4 2.4c0 0-0.1 0-0.1 0v20.1l0.1 0 14.8 8.6H0V192zM17.4 188.2L2.5 162.5l14.8 8.6V188.2zM19.4 148.6v-17.2l14.8 25.8L19.4 148.6zM33.3 158.9H3.5l14.9-8.6L33.3 158.9zM21.2 130.6l14.6 8.5V156L21.2 130.6zM35.8 99.7v16.9l-14.6 8.5L35.8 99.7zM34.3 95.8c0-1.3 1.1-2.4 2.4-2.4 1.3 0 2.4 1.1 2.4 2.4 0 1.3-1.1 2.4-2.4 2.4C35.4 98.2 34.3 97.2 34.3 95.8zM21.9 126.9l14.8-8.6 14.8 8.6H21.9zM51.5 128.8l-14.8 8.6 -14.8-8.6H51.5zM37.7 116.6V99.4l14.8 25.8L37.7 116.6zM39.3 98.5l14.8 8.6v17.2L39.3 98.5zM40.3 94.9l14.8-8.6 14.8 8.6H40.3zM69.9 96.8l-14.8 8.6 -14.8-8.6H69.9zM55.2 125.4c1.3 0 2.4 1.1 2.4 2.4 0 1.3-1.1 2.4-2.4 2.4 -1.3 0-2.4-1.1-2.4-2.4C52.8 126.5 53.9 125.4 55.2 125.4zM56.1 124.2v-17.2l14.8-8.6L56.1 124.2zM72.6 99.4v17.2l-14.8 8.6L72.6 99.4zM71.1 95.8c0-1.3 1.1-2.4 2.4-2.4 1.3 0 2.4 1.1 2.4 2.4 0 1.3-1.1 2.4-2.4 2.4C72.2 98.2 71.1 97.2 71.1 95.8zM58.7 126.9l14.8-8.6 14.8 8.6H58.7zM88.3 128.8l-14.8 8.6 -14.8-8.6H88.3zM74.5 116.6V99.2l15.1 26.2L74.5 116.6zM76.3 98.5L91 107v17L76.3 98.5zM77.3 94.9L92 86.3l14.7 8.6H77.3zM106.7 96.8L92 105.4l-14.7-8.6H106.7zM92 125.4c1.3 0 2.4 1.1 2.4 2.4 0 1.3-1.1 2.4-2.4 2.4s-2.4-1.1-2.4-2.4C89.6 126.5 90.7 125.4 92 125.4zM93 124v-17l14.7-8.5L93 124zM109.5 99.2v17.5l-15.1 8.7L109.5 99.2zM107.9 95.8c0-1.3 1.1-2.4 2.4-2.4s2.4 1.1 2.4 2.4c0 1.3-1.1 2.4-2.4 2.4S107.9 97.2 107.9 95.8zM95.7 126.9l14.8-8.6 14.8 8.6H95.7zM125.3 128.8l-14.8 8.6 -14.8-8.6H125.3zM111.4 116.6V99.4l14.8 25.8L111.4 116.6zM113.1 98.5l14.8 8.6v17.2L113.1 98.5zM114.1 94.9l14.8-8.6 14.8 8.6H114.1zM143.7 96.8l-14.8 8.6 -14.8-8.6H143.7zM128.8 125.4c1.3 0 2.4 1.1 2.4 2.4 0 1.3-1.1 2.4-2.4 2.4 -1.3 0-2.4-1.1-2.4-2.4C126.4 126.5 127.4 125.4 128.8 125.4zM129.8 124.2v-17.2l14.8-8.6L129.8 124.2zM146.3 99.4v17.2l-14.8 8.6L146.3 99.4zM144.9 95.8c0-1.3 1.1-2.4 2.4-2.4s2.4 1.1 2.4 2.4c0 1.3-1.1 2.4-2.4 2.4S144.9 97.2 144.9 95.8zM132.5 126.9l14.8-8.6 14.8 8.6H132.5zM162.1 128.8l-14.8 8.6 -14.8-8.6H162.1zM148.2 116.6V99.7l14.6 25.4L148.2 116.6zM149.7 98.5l14.8 8.6v17.2L149.7 98.5zM150.7 96.8h29.8l-14.9 8.6L150.7 96.8zM150.7 94.9l14.9-8.6 14.9 8.6H150.7zM164.6 84.6l-14.8 8.6 14.8-25.8V84.6zM148.2 92V75.1l14.6-8.5L148.2 92zM162.1 64.8l-14.8 8.6 -14.8-8.6H162.1zM132.5 62.9l14.8-8.6 14.8 8.6H132.5zM146.3 75.1v17.2l-14.8-25.8L146.3 75.1zM144.7 93.2l-14.8-8.6V67.4L144.7 93.2zM128.8 65.9c-1.3 0-2.4-1.1-2.4-2.4 0-1.3 1.1-2.4 2.4-2.4 1.3 0 2.4 1.1 2.4 2.4C131.2 64.8 130.1 65.9 128.8 65.9zM127.9 67.4v17.2l-14.8 8.6L127.9 67.4zM111.4 92.2V75.1l14.8-8.6L111.4 92.2zM125.3 64.8l-14.8 8.6 -14.8-8.6H125.3zM95.7 62.9l14.8-8.6 14.8 8.6H95.7zM109.5 75.1v17.5L94.5 66.3 109.5 75.1zM107.7 93.2L93 84.7v-17L107.7 93.2zM92 65.9c-1.3 0-2.4-1.1-2.4-2.4 0-1.3 1.1-2.4 2.4-2.4s2.4 1.1 2.4 2.4C94.4 64.8 93.3 65.9 92 65.9zM91 67.7v17l-14.7 8.5L91 67.7zM74.5 92.5V75.1l15.1-8.7L74.5 92.5zM88.3 64.8l-14.8 8.6 -14.8-8.6H88.3zM58.7 62.9l14.8-8.6 14.8 8.6H58.7zM72.6 75.1v17.2L57.7 66.5 72.6 75.1zM70.9 93.2l-14.8-8.6V67.4L70.9 93.2zM55.2 65.9c-1.3 0-2.4-1.1-2.4-2.4 0-1.3 1.1-2.4 2.4-2.4 1.3 0 2.4 1.1 2.4 2.4C57.6 64.8 56.6 65.9 55.2 65.9zM54.2 67.4v17.2l-14.8 8.6L54.2 67.4zM37.7 92.2V75.1l14.8-8.6L37.7 92.2zM51.5 64.8l-14.8 8.6 -14.8-8.6H51.5zM21.9 62.9l14.8-8.6 14.8 8.6H21.9zM35.8 75.1V92L21.2 66.6 35.8 75.1zM34.3 93.2l-14.8-8.6V67.4L34.3 93.2zM33.3 94.9H3.5l14.9-8.6L33.3 94.9zM33.3 96.8l-14.9 8.6L3.5 96.8H33.3zM19.4 107.1l14.8-8.6 -14.8 25.8V107.1zM36.7 157.4c1.3 0 2.4 1.1 2.4 2.4s-1.1 2.4-2.4 2.4c-1.3 0-2.4-1.1-2.4-2.4S35.4 157.4 36.7 157.4zM37.7 156.2v-17.2l14.8-8.6L37.7 156.2zM54.2 131.4v17.2l-14.8 8.6L54.2 131.4zM55.1 150.3l14.8 8.6H40.3L55.1 150.3zM56.1 148.6v-17.2l14.8 25.8L56.1 148.6zM57.7 130.5l14.8 8.6v17.2L57.7 130.5zM73.5 157.4c1.3 0 2.4 1.1 2.4 2.4s-1.1 2.4-2.4 2.4c-1.3 0-2.4-1.1-2.4-2.4S72.2 157.4 73.5 157.4zM74.5 156.5v-17.5l15.1-8.7L74.5 156.5zM91 131.7v17l-14.7 8.5L91 131.7zM92 150.3l14.7 8.6H77.3L92 150.3zM93 148.7v-17l14.7 25.5L93 148.7zM94.5 130.3l15.1 8.7v17.5L94.5 130.3zM110.3 157.4c1.3 0 2.4 1.1 2.4 2.4s-1.1 2.4-2.4 2.4 -2.4-1.1-2.4-2.4S109 157.4 110.3 157.4zM111.4 156.2v-17.2l14.8-8.6L111.4 156.2zM127.9 131.4v17.2l-14.8 8.6L127.9 131.4zM128.9 150.3l14.8 8.6h-29.7L128.9 150.3zM129.8 148.6v-17.2l14.8 25.8L129.8 148.6zM131.5 130.5l14.8 8.6v17.2L131.5 130.5zM147.3 157.4c1.3 0 2.4 1.1 2.4 2.4s-1.1 2.4-2.4 2.4 -2.4-1.1-2.4-2.4S146 157.4 147.3 157.4zM148.2 156v-16.9l14.6-8.5L148.2 156zM164.6 131.4v17.2l-14.8 8.6L164.6 131.4zM165.6 150.2l14.9 8.6h-29.8L165.6 150.2zM166.6 148.6v-17.2l14.8 25.8L166.6 148.6zM165.5 130.2c-1.3 0-2.4-1.1-2.4-2.4 0-1.3 1.1-2.4 2.4-2.4 1.3 0 2.4 1.1 2.4 2.4C167.9 129.2 166.9 130.2 165.5 130.2zM166.6 124.2v-17.2l14.8-8.6L166.6 124.2zM166.6 84.6V67.4l14.8 25.8L166.6 84.6zM165.5 65.9c-1.3 0-2.4-1.1-2.4-2.4 0-1.3 1.1-2.4 2.4-2.4 1.3 0 2.4 1.1 2.4 2.4C167.9 64.8 166.9 65.9 165.5 65.9zM166.6 60.2V43.1l14.8-8.6L166.6 60.2zM165.6 41.4l-14.9-8.6h29.8L165.6 41.4zM164.6 43.1v17.2l-14.8-25.8L164.6 43.1zM162.8 61.1l-14.6-8.5V35.7L162.8 61.1zM147.3 34.2c-1.3 0-2.4-1.1-2.4-2.4s1.1-2.4 2.4-2.4 2.4 1.1 2.4 2.4S148.6 34.2 147.3 34.2zM146.3 35.4v17.2l-14.8 8.6L146.3 35.4zM129.8 60.2V43.1l14.8-8.6L129.8 60.2zM128.9 41.4l-14.8-8.6h29.7L128.9 41.4zM127.9 43.1v17.2l-14.8-25.8L127.9 43.1zM126.3 61.2l-14.8-8.6V35.4L126.3 61.2zM110.3 34.2c-1.3 0-2.4-1.1-2.4-2.4s1.1-2.4 2.4-2.4 2.4 1.1 2.4 2.4S111.6 34.2 110.3 34.2zM109.5 35.2v17.5l-15.1 8.7L109.5 35.2zM93 60V43l14.7-8.5L93 60zM92 41.4l-14.7-8.6h29.5L92 41.4zM91 43v17L76.3 34.5 91 43zM89.5 61.4l-15.1-8.7V35.2L89.5 61.4zM73.5 34.2c-1.3 0-2.4-1.1-2.4-2.4s1.1-2.4 2.4-2.4c1.3 0 2.4 1.1 2.4 2.4S74.8 34.2 73.5 34.2zM72.6 35.4v17.2l-14.8 8.6L72.6 35.4zM56.1 60.2V43.1l14.8-8.6L56.1 60.2zM55.1 41.4l-14.8-8.6h29.7L55.1 41.4zM54.2 43.1v17.2L39.3 34.5 54.2 43.1zM52.5 61.2l-14.8-8.6V35.4L52.5 61.2zM36.7 34.2c-1.3 0-2.4-1.1-2.4-2.4s1.1-2.4 2.4-2.4c1.3 0 2.4 1.1 2.4 2.4S38 34.2 36.7 34.2zM35.8 35.7v16.9l-14.6 8.5L35.8 35.7zM19.4 60.2V43.1l14.8-8.6L19.4 60.2zM18.4 41.4L3.5 32.8h29.8L18.4 41.4zM17.4 43.1v17.2L2.5 34.5 17.4 43.1zM18.5 61.1c1.3 0 2.4 1.1 2.4 2.4 0 1.3-1.1 2.4-2.4 2.4 -1.3 0-2.4-1.1-2.4-2.4C16.1 62.2 17.1 61.1 18.5 61.1zM17.4 67.4v17.2L2.5 93.2 17.4 67.4zM17.4 107.1v17.2L2.5 98.5 17.4 107.1zM18.5 125.4c1.3 0 2.4 1.1 2.4 2.4 0 1.3-1.1 2.4-2.4 2.4 -1.3 0-2.4-1.1-2.4-2.4C16.1 126.5 17.1 125.4 18.5 125.4zM17.4 131.4v17.2l-14.8 8.6L17.4 131.4zM18.4 169.4l-14.9-8.6h29.8L18.4 169.4zM19.4 188.2v-17.2l14.8-8.6L19.4 188.2zM35.8 163.7v16.9l-14.6 8.5L35.8 163.7zM21.9 190.9l14.8-8.6 14.8 8.6H21.9zM37.7 180.6v-17.2l14.8 25.8L37.7 180.6zM54.2 188.2l-14.8-25.8 14.8 8.6V188.2zM55.1 169.4l-14.8-8.6h29.7L55.1 169.4zM56.1 188.2v-17.2l14.8-8.6L56.1 188.2zM72.6 163.4v17.2l-14.8 8.6L72.6 163.4zM58.7 190.9l14.8-8.6 14.8 8.6H58.7zM74.5 180.6v-17.5l15.1 26.2L74.5 180.6zM91 188l-14.7-25.5L91 171V188zM77.3 160.8h29.5L92 169.4 77.3 160.8zM93 188v-17l14.7-8.5L93 188zM109.5 163.2v17.5l-15.1 8.7L109.5 163.2zM95.7 190.9l14.8-8.6 14.8 8.6H95.7zM111.4 180.6v-17.2l14.8 25.8L111.4 180.6zM127.9 188.2l-14.8-25.8 14.8 8.6V188.2zM114.1 160.8h29.7l-14.8 8.6L114.1 160.8zM129.8 188.2v-17.2l14.8-8.6L129.8 188.2zM146.3 163.4v17.2l-14.8 8.6L146.3 163.4zM132.5 190.9l14.8-8.6 14.8 8.6H132.5zM148.2 180.6v-16.9l14.6 25.4L148.2 180.6zM164.6 188.2l-14.8-25.8 14.8 8.6V188.2zM150.7 160.8h29.8l-14.9 8.6L150.7 160.8zM166.6 188.2v-17.2l14.8-8.6L166.6 188.2zM183 163.7v16.9l-14.6 8.5L183 163.7zM183 139.1V156l-14.6-25.4L183 139.1zM183 99.7v16.9l-14.6 8.5L183 99.7zM183 75.1V92l-14.6-25.4L183 75.1zM183 35.7v16.9l-14.6 8.5L183 35.7zM183 11.1V28L168.4 2.6 183 11.1zM166.6 3.4l14.8 25.8 -14.8-8.6V3.4zM165.6 22.2l14.9 8.6h-29.8L165.6 22.2zM164.6 3.4v17.2l-14.8 8.6L164.6 3.4zM148.2 28V11.1l14.6-8.5L148.2 28zM162.1 0.8l-14.8 8.6 -14.8-8.6H162.1zM146.3 11.1v17.2L131.5 2.5 146.3 11.1zM129.8 3.4l14.8 25.8 -14.8-8.6V3.4zM128.9 22.3l14.8 8.6h-29.7L128.9 22.3zM127.9 3.4v17.2l-14.8 8.6L127.9 3.4zM111.4 28.2V11.1l14.8-8.6L111.4 28.2zM125.3 0.8l-14.8 8.6L95.7 0.8H125.3zM109.5 11.1v17.5L94.5 2.3 109.5 11.1zM93 3.7l14.7 25.5L93 20.7V3.7zM106.7 30.9H77.3L92 22.3 106.7 30.9zM91 3.7v17l-14.7 8.5L91 3.7zM74.5 28.5V11.1l15.1-8.7L74.5 28.5zM88.3 0.8L73.5 9.4 58.7 0.8H88.3zM72.6 11.1v17.2L57.7 2.5 72.6 11.1zM56.1 3.4l14.8 25.8 -14.8-8.6V3.4zM69.9 30.9H40.3l14.8-8.6L69.9 30.9zM54.2 3.4v17.2l-14.8 8.6L54.2 3.4zM37.7 28.2V11.1l14.8-8.6L37.7 28.2zM51.5 0.8L36.7 9.4 21.9 0.8H51.5zM35.8 11.1V28L21.2 2.6 35.8 11.1zM19.4 3.4l14.8 25.8 -14.8-8.6V3.4zM33.3 30.9H3.5l14.9-8.6L33.3 30.9zM17.4 3.4v17.2L2.5 29.2 17.4 3.4zM1 28V11.1l14.6-8.5L1 28zM1 52.6V35.7l14.6 25.4L1 52.6zM1 92V75.1l14.6-8.5L1 92zM1 116.6V99.7l14.6 25.4L1 116.6zM1 156v-16.9l14.6-8.5L1 156zM1 180.6v-16.9l14.6 25.4L1 180.6z" opacity="0.2">
     <!--     <animate attributeType="CSS" attributeName="opacity" from="0.15" to="0.35" values="0.15; 0.35; 0.15" dur="5s" repeatCount="indefinite" /> -->
        </path>
      </pattern>
    </defs>
  <rect x="0" y="0" fill="url(#asanoha-pattern)" width="100%" height="100%"/>
</svg>
