<svg xmlns="http://www.w3.org/2000/svg" id="resDesIcon" class="rightNavSVG" viewBox="0 0 216 216"><style>.a{fill:#FFF;opacity:0.5;}</style><path d="M47.6 94.9v25.8h29.8c4.8 0 8.8 3.9 8.8 8.8v68.9h37V94.9H47.6z" class="a"/><rect id="resDesemptyContainer" width="216" height="216" fill="none"/><path d="M132.1 199v8.4c0 2.3-0.9 4.4-2.3 6h22v-7.7C142.9 205.8 136.5 202.7 132.1 199z"/><path d="M195.2 38.7H20.8C14.2 38.7 9 44.5 9 52v118.7c0 7.5 5.2 13.3 11.8 13.3h7.3v-27.2h-5.5V52.3h170.7v104.5h-61.2V184h63c6.6 0 11.8-5.8 11.8-13.3V52C207 44.5 201.8 38.7 195.2 38.7z"/><path d="M123.1 84.3H47.5c-3.3 0-6 2.7-6 6v30.1h6V94.9h75.5v103.5H86.4v9.1c0 2.3-0.9 4.4-2.3 6h39.1c3.3 0 6-2.7 6-6V90.3C129.1 87 126.4 84.3 123.1 84.3z"/><rect id="resDesscreen50m" x="36.8" y="132.5" width="40.9" height="67.5" class="a"/><path d="M77.4 123.5H37.1c-3.3 0-6 2.7-6 6v78c0 3.3 2.7 6 6 6h40.3c3.3 0 6-2.7 6-6v-78C83.4 126.2 80.7 123.5 77.4 123.5zM77.7 200H36.8v-67.5h40.9V200z"/><path d="M22.7 52.3v104.5h5.7v-27.4c0-4.8 3.9-8.8 8.8-8.8h1.7v-0.2V90.3c0-4.8 3.9-8.8 8.8-8.8h75.6c4.8 0 8.8 3.9 8.8 8.8v66.5h61.4V52.3H22.7z" class="a"/></svg>