<svg xmlns="http://www.w3.org/2000/svg" id="webDevIcon" class="rightNavSVG" viewBox="0 0 216 216"><rect id="webDevemptyContainer" width="216" height="216" fill="none"/><path d="M123.4 186.7H92.6c0 0-6.3 19.1-28.4 19.1v7.7h87.6v-7.7C129.6 205.8 123.4 186.7 123.4 186.7z"/><path d="M195.2 38.7H20.8C14.2 38.7 9 44.5 9 52v118.7c0 7.5 5.2 13.3 11.8 13.3h174.4c6.6 0 11.8-5.8 11.8-13.3V52C207 44.5 201.8 38.7 195.2 38.7zM193.3 156.8H22.7V52.3h170.7V156.8z"/><rect id="webDevScreen50" x="22.7" y="52.3" width="170.7" height="104.5" style="fill:#FFF;opacity:0.5"/><path d="M84.6 126.1c0 1.1-0.4 2.1-1.2 2.9 -0.8 0.9-1.6 1.3-2.3 1.3 -0.5 0-1-0.2-1.6-0.5 -0.6-0.3-1.2-0.6-1.9-1l-22.8-13.4c-0.6-0.3-1-0.8-1.3-1.4 -0.3-0.6-0.4-1.2-0.4-1.9 0-0.7 0.1-1.3 0.4-1.9 0.3-0.6 0.7-1 1.3-1.3L77.6 96c1.4-0.8 2.4-1.2 3.2-1.2 0.9 0 1.8 0.5 2.6 1.4 0.8 0.9 1.2 1.9 1.2 2.8 0 1.1-0.5 1.9-1.5 2.5l-18.6 10.8L83 123.4C84 123.9 84.6 124.9 84.6 126.1z"/><path d="M91.5 138.7c-0.8-0.7-1.2-1.5-1.2-2.5 0-0.6 0.1-1.1 0.4-1.7l28.4-58.2c0.3-0.7 0.8-1.2 1.3-1.5 0.5-0.4 1.1-0.6 1.8-0.6 0.9 0 1.7 0.3 2.5 1 0.8 0.7 1.2 1.5 1.2 2.5 0 0.6-0.1 1.1-0.4 1.7l-28.3 58.2c-0.3 0.7-0.8 1.2-1.3 1.5 -0.5 0.4-1.1 0.6-1.8 0.6C93.1 139.8 92.3 139.4 91.5 138.7z"/><path d="M162.5 111c0.3 0.6 0.4 1.2 0.4 1.9 0 0.7-0.1 1.3-0.4 1.9 -0.3 0.6-0.7 1-1.3 1.3l-22.8 13.1c-1.4 0.8-2.4 1.2-3.2 1.2 -0.9 0-1.8-0.5-2.6-1.4s-1.2-1.9-1.2-2.8c0-1.1 0.5-1.9 1.5-2.5l18.6-10.8L133 101.8c-1-0.6-1.5-1.5-1.5-2.7 0-1.1 0.4-2.1 1.2-2.9 0.8-0.9 1.6-1.3 2.3-1.3 0.5 0 1 0.2 1.6 0.5 0.6 0.3 1.2 0.6 1.9 1l22.8 13.4C161.8 110 162.2 110.4 162.5 111z"/></svg>