<svg xmlns="http://www.w3.org/2000/svg" id="webDesIcon" class="rightNavSVG" viewBox="0 0 216 216"><rect id="webDesemptyContainer" width="216" height="216" fill="none"/><path d="M123.4 186.7H92.6c0 0-6.3 19.1-28.4 19.1v7.7h87.6v-7.7C129.6 205.8 123.4 186.7 123.4 186.7z"/><rect id="webDesScreen50" x="22.7" y="52.3" width="170.7" height="104.5" style="fill:#FFF;opacity:0.5"/><g id="webDesBrush"><path d="M185.8 3.1c4.4 4.4-9.3 25.3-28.6 50.6 -19.3 25.3-36.7 45.6-41.2 41 -4.5-4.5 9.3-25.3 28.6-50.6C163.9 18.9 181.4-1.2 185.8 3.1z"/><path d="M117.6 98.8c-1.6 0-3-0.6-4.1-1.6 -1-1-1.6-2.2-1.8-3.9 -2.2-0.3-4.7 0.1-7.1 0.8 -5 1.5-6.8 5-8.5 10.3 -1.6 2.5-1.7 7.6-11.9 11.9 14.4 3.6 24.1 0.5 29.2-3.7 4-3.3 6.2-9.8 5-13.9C118 98.8 117.8 98.8 117.6 98.8z"/></g><path d="M195.2 38.7h-22.7c-2.9 4.1-6.2 8.6-10 13.7h30.8v104.5H22.7V52.3h111.6c2.4-3.2 4.8-6.5 7.6-10.2 0.9-1.2 1.8-2.3 2.6-3.4H20.8C14.2 38.7 9 44.5 9 52v118.7c0 7.5 5.2 13.3 11.8 13.3h174.4c6.6 0 11.8-5.8 11.8-13.3V52C207 44.5 201.8 38.7 195.2 38.7z"/></svg>