<svg xmlns="http://www.w3.org/2000/svg" id="digMktIcon" class="rightNavSVG" viewBox="0 0 216 216"><style>.a{fill:#111;}</style><rect id="emptyContainerDigMkt" width="216" height="216" fill="none"/><g><path d="M123.4 168.7H92.6c0 0-6.3 19.1-28.4 19.1v7.7h87.6v-7.7C129.6 187.7 123.4 168.7 123.4 168.7z" class="a"/><path d="M195.2 20.6H20.8C14.2 20.6 9 26.4 9 33.9v118.7c0 7.5 5.2 13.3 11.8 13.3h174.4c6.6 0 11.8-5.8 11.8-13.3V33.9C207 26.4 201.8 20.6 195.2 20.6zM193.3 138.8H22.7V34.3h170.7V138.8z" class="a"/><g id="loudSpeaker"><path d="M67.3 72.9c-3.7 1.3-6.3 4.8-6.3 9s2.7 7.7 6.3 9V72.9z" class="a"/><g><path d="M146.1 72.9v18c5 0 9-4 9-9C155.1 76.9 151.1 72.9 146.1 72.9z" class="a"/></g><polygon points="103.1 71.2 101.6 71.2 101.9 92.6 103 92.6 137.9 113.4 137.9 50.4 " class="a"/><g><path d="M89.3 127.1h-7.8c-1.4 0-2.5-1.1-2.5-2.5l-6-23.3c0-1.4 1.1-2.5 2.5-2.5h17.8c1.4 0 2.5 1.4 2.5 3.5s-5.2 7.5-4.8 14.2c0.4 6.7 0.8 8.2 0.8 8.2C91.8 126 90.7 127.1 89.3 127.1z" class="a"/><path d="M94 97.5H74.9c-3.3 0-6-2.7-6-6V72.3c0-3.3 2.7-6 6-6H94c3.3 0 6 2.7 6 6v19.2C100 94.8 97.3 97.5 94 97.5z" class="a"/></g><path d="M142 117.9L142 117.9c-1.4 0-2.5-1.1-2.5-2.5v-67c0-1.4 1.1-2.5 2.5-2.5h0c1.4 0 2.5 1.1 2.5 2.5v67C144.5 116.8 143.4 117.9 142 117.9z" class="a"/></g></g></svg>
