<svg xmlns="http://www.w3.org/2000/svg" viewBox="0 0 216 216"><rect width="216" height="216" fill="#009898"/><path d="M216 216H0C0 216 0.9 3.3 1.3 3.3h213.5C215.1 3.3 216 216 216 216z" fill="#019999"/><path d="M216 216H0C0 216 1.8 6.7 2.5 6.7h211C214.2 6.7 216 216 216 216z" fill="#029A9A"/><path d="M216 216H0c0 0 2.8-206 3.8-206h208.5C213.2 10 216 216 216 216z" fill="#039B9B"/><path d="M216 216H0c0 0 3.7-202.6 5-202.6h206C212.3 13.4 216 216 216 216z" fill="#049C9C"/><path d="M216 216H0c0 0 4.6-199.3 6.3-199.3h203.5C211.4 16.7 216 216 216 216z" fill="#059D9D"/><path d="M216 216H0c0 0 5.5-196 7.5-196h200.9C210.5 20 216 216 216 216z" fill="#069E9E"/><path d="M216 216H0c0 0 6.4-192.6 8.8-192.6h198.4C209.6 23.4 216 216 216 216z" fill="#079F9F"/><path d="M216 216H0c0 0 7.3-189.3 10-189.3H206C208.7 26.7 216 216 216 216z" fill="#08A0A0"/><path d="M216 216H0c0 0 8.3-185.9 11.3-185.9h193.4C207.7 30.1 216 216 216 216z" fill="#09A1A1"/><path d="M216 216H0c0 0 9.2-182.6 12.5-182.6h190.9C206.8 33.4 216 216 216 216z" fill="#0AA2A2"/><path d="M216 216H0c0 0 10.1-179.3 13.8-179.3h188.4C205.9 36.7 216 216 216 216z" fill="#0BA3A3"/><path d="M216 216H0c0 0 11-175.9 15.1-175.9h185.9C205 40.1 216 216 216 216z" fill="#0CA4A4"/><path d="M216 216H0c0 0 11.9-172.6 16.3-172.6h183.4C204.1 43.4 216 216 216 216z" fill="#0DA5A5"/><path d="M216 216H0c0 0 12.8-169.2 17.6-169.2h180.9C203.2 46.8 216 216 216 216z" fill="#0DA6A6"/><path d="M216 216H0c0 0 13.8-165.9 18.8-165.9h178.4C202.2 50.1 216 216 216 216z" fill="#0EA7A7"/><path d="M216 216H0c0 0 14.7-162.6 20.1-162.6h175.9C201.3 53.4 216 216 216 216z" fill="#0FA8A8"/><path d="M216 216H0c0 0 15.6-159.2 21.3-159.2h173.3C200.4 56.8 216 216 216 216z" fill="#10A9A9"/><path d="M216 216H0c0 0 16.5-155.9 22.6-155.9h170.8C199.5 60.1 216 216 216 216z" fill="#1AA"/><path d="M216 216H0c0 0 17.4-152.5 23.8-152.5h168.3C198.6 63.5 216 216 216 216z" fill="#12ABAB"/><path d="M216 216H0c0 0 18.4-149.2 25.1-149.2h165.8C197.6 66.8 216 216 216 216z" fill="#13ACAC"/><path d="M216 216H0c0 0 19.3-145.9 26.3-145.9h163.3C196.7 70.1 216 216 216 216z" fill="#14ADAD"/><path d="M216 216H0c0 0 20.2-142.5 27.6-142.5h160.8C195.8 73.5 216 216 216 216z" fill="#15AEAE"/><path d="M216 216H0c0 0 21.1-139.2 28.9-139.2h158.3C194.9 76.8 216 216 216 216z" fill="#16AFAF"/><path d="M216 216H0c0 0 22-135.8 30.1-135.8h155.8C194 80.2 216 216 216 216z" fill="#17B0B0"/><path d="M216 216H0c0 0 22.9-132.5 31.4-132.5h153.3C193.1 83.5 216 216 216 216z" fill="#18B1B1"/><path d="M216 216H0c0 0 23.9-129.2 32.6-129.2h150.8C192.1 86.8 216 216 216 216z" fill="#19B2B2"/><path d="M216 216H0c0 0 24.8-125.8 33.9-125.8h148.3C191.2 90.2 216 216 216 216z" fill="#1AB2B2"/><path d="M216 216H0c0 0 25.7-122.5 35.1-122.5h145.7C190.3 93.5 216 216 216 216z" fill="#1BB3B3"/><path d="M216 216H0c0 0 26.6-119.2 36.4-119.2h143.2C189.4 96.8 216 216 216 216z" fill="#1CB4B4"/><path d="M216 216H0c0 0 27.5-115.8 37.6-115.8h140.7C188.5 100.2 216 216 216 216z" fill="#1DB5B5"/><path d="M216 216H0c0 0 28.4-112.5 38.9-112.5h138.2C187.6 103.5 216 216 216 216z" fill="#1EB6B6"/><path d="M216 216H0c0 0 29.4-109.1 40.1-109.1h135.7C186.6 106.9 216 216 216 216z" fill="#1FB7B7"/><path d="M216 216H0c0 0 30.3-105.8 41.4-105.8h133.2C185.7 110.2 216 216 216 216z" fill="#20B8B8"/><path d="M216 216H0c0 0 31.2-102.5 42.7-102.5h130.7C184.8 113.5 216 216 216 216z" fill="#21B9B9"/><path d="M216 216H0c0 0 32.1-99.1 43.9-99.1h128.2C183.9 116.9 216 216 216 216z" fill="#22BABA"/><path d="M216 216H0c0 0 33-95.8 45.2-95.8h125.7C183 120.2 216 216 216 216z" fill="#23BBBB"/><path d="M216 216H0c0 0 34-92.4 46.4-92.4h123.2C182 123.6 216 216 216 216z" fill="#24BCBC"/><path d="M216 216H0c0 0 34.9-89.1 47.7-89.1h120.7C181.1 126.9 216 216 216 216z" fill="#25BDBD"/><path d="M216 216H0c0 0 35.8-85.8 48.9-85.8h118.1C180.2 130.2 216 216 216 216z" fill="#26BEBE"/><path d="M216 216H0c0 0 36.7-82.4 50.2-82.4h115.6C179.3 133.6 216 216 216 216z" fill="#26BFBF"/><path d="M216 216H0c0 0 37.6-79.1 51.4-79.1h113.1C178.4 136.9 216 216 216 216z" fill="#27C0C0"/><path d="M216 216H0c0 0 38.5-75.7 52.7-75.7h110.6C177.5 140.3 216 216 216 216z" fill="#28C1C1"/><path d="M216 216H0c0 0 39.5-72.4 53.9-72.4h108.1C176.5 143.6 216 216 216 216z" fill="#29C2C2"/><path d="M216 216H0c0 0 40.4-69.1 55.2-69.1h105.6C175.6 146.9 216 216 216 216z" fill="#2AC3C3"/><path d="M216 216H0c0 0 41.3-65.7 56.5-65.7h103.1C174.7 150.3 216 216 216 216z" fill="#2BC4C4"/><path d="M216 216H0c0 0 42.2-62.4 57.7-62.4h100.6C173.8 153.6 216 216 216 216z" fill="#2CC5C5"/><path d="M216 216H0c0 0 43.1-59 59-59H157C172.9 157 216 216 216 216z" fill="#2DC6C6"/><path d="M216 216H0c0 0 44-55.7 60.2-55.7h95.6C172 160.3 216 216 216 216z" fill="#2EC7C7"/><path d="M216 216H0c0 0 45-52.4 61.5-52.4h93.1C171 163.6 216 216 216 216z" fill="#2FC8C8"/><path d="M216 216H0c0 0 45.9-49 62.7-49h90.5C170.1 167 216 216 216 216z" fill="#30C9C9"/><path d="M216 216H0c0 0 46.8-45.7 64-45.7h88C169.2 170.3 216 216 216 216z" fill="#31CACA"/><path d="M216 216H0c0 0 47.7-42.3 65.2-42.3h85.5C168.3 173.7 216 216 216 216z" fill="#32CBCB"/><path d="M216 216H0c0 0 48.6-39 66.5-39h83C167.4 177 216 216 216 216z" fill="#3CC"/></svg>