<svg xmlns="http://www.w3.org/2000/svg" id="webDevIcon" class="rightNavSVG" viewBox="0 0 216 216"><style>.a{fill:#111;}</style><rect id="emptyContainerWebDev" width="216" height="216" fill="none"/><g><path d="M123.4 168.7H92.6c0 0-6.3 19.1-28.4 19.1v7.7h87.6v-7.7C129.6 187.7 123.4 168.7 123.4 168.7z" class="a"/><path d="M195.2 20.6H20.8C14.2 20.6 9 26.4 9 33.9v118.7c0 7.5 5.2 13.3 11.8 13.3h174.4c6.6 0 11.8-5.8 11.8-13.3V33.9C207 26.4 201.8 20.6 195.2 20.6zM193.3 138.8H22.7V34.3h170.7V138.8z" class="a"/><g><path d="M84.6 108.1c0 1.1-0.4 2.1-1.2 2.9 -0.8 0.9-1.6 1.3-2.3 1.3 -0.5 0-1-0.2-1.6-0.5 -0.6-0.3-1.2-0.6-1.9-1L54.8 97.5c-0.6-0.3-1-0.8-1.3-1.4 -0.3-0.6-0.4-1.2-0.4-1.9 0-0.7 0.1-1.3 0.4-1.9 0.3-0.6 0.7-1 1.3-1.3L77.6 78c1.4-0.8 2.4-1.2 3.2-1.2 0.9 0 1.8 0.5 2.6 1.4 0.8 0.9 1.2 1.9 1.2 2.8 0 1.1-0.5 1.9-1.5 2.5L64.5 94.3 83 105.3C84 105.9 84.6 106.8 84.6 108.1z" class="a"/><path d="M91.5 120.7c-0.8-0.7-1.2-1.5-1.2-2.5 0-0.6 0.1-1.1 0.4-1.7l28.4-58.2c0.3-0.7 0.8-1.2 1.3-1.5 0.5-0.4 1.1-0.6 1.8-0.6 0.9 0 1.7 0.3 2.5 1 0.8 0.7 1.2 1.5 1.2 2.5 0 0.6-0.1 1.1-0.4 1.7l-28.3 58.2c-0.3 0.7-0.8 1.2-1.3 1.5 -0.5 0.4-1.1 0.6-1.8 0.6C93.1 121.7 92.3 121.4 91.5 120.7z" class="a"/><path d="M162.5 93c0.3 0.6 0.4 1.2 0.4 1.9 0 0.7-0.1 1.3-0.4 1.9 -0.3 0.6-0.7 1-1.3 1.3l-22.8 13.1c-1.4 0.8-2.4 1.2-3.2 1.2 -0.9 0-1.8-0.5-2.6-1.4s-1.2-1.9-1.2-2.8c0-1.1 0.5-1.9 1.5-2.5l18.6-10.8L133 83.8c-1-0.6-1.5-1.5-1.5-2.7 0-1.1 0.4-2.1 1.2-2.9 0.8-0.9 1.6-1.3 2.3-1.3 0.5 0 1 0.2 1.6 0.5 0.6 0.3 1.2 0.6 1.9 1l22.8 13.4C161.8 91.9 162.2 92.4 162.5 93z" class="a"/></g></g></svg>
