<svg xmlns="http://www.w3.org/2000/svg" id="resDesignIcon" class="rightNavSVG" viewBox="0 0 216 216"><style>.a{fill:#111;}</style><rect id="emptyContainerResDesign" width="216" height="216" fill="none"/><g><g><path d="M132.1 180.9v8.4c0 2.3-0.9 4.4-2.3 6h22v-7.7C142.9 187.7 136.5 184.6 132.1 180.9z" class="a"/></g><g><path d="M195.2 20.6H20.8C14.2 20.6 9 26.4 9 33.9v118.7c0 7.5 5.2 13.3 11.8 13.3h7.3v-27.2h-5.5V34.3h170.7v104.5h-61.2v27.2h63c6.6 0 11.8-5.8 11.8-13.3V33.9C207 26.4 201.8 20.6 195.2 20.6z" class="a"/></g><path d="M77.4 105.4H37.1c-3.3 0-6 2.7-6 6v78c0 3.3 2.7 6 6 6h40.3c3.3 0 6-2.7 6-6v-78C83.4 108.1 80.7 105.4 77.4 105.4zM77.7 181.9H36.8v-67.5h40.9V181.9z" class="a"/><g><path d="M123.1 66.3H47.5c-3.3 0-6 2.7-6 6v30.1h6V76.8h75.5v103.5H86.4v9.1c0 2.3-0.9 4.4-2.3 6h39.1c3.3 0 6-2.7 6-6V72.3C129.1 69 126.4 66.3 123.1 66.3z" class="a"/></g></g></svg>