<svg xmlns="http://www.w3.org/2000/svg" id="digMktIcon" class="rightNavSVG" viewBox="0 0 216 216"><rect id="digMktemptyContainer" width="216" height="216" fill="none"/><path d="M123.4 186.7H92.6c0 0-6.3 19.1-28.4 19.1v7.7h87.6v-7.7C129.6 205.8 123.4 186.7 123.4 186.7z"/><path d="M195.2 38.7H20.8C14.2 38.7 9 44.5 9 52v118.7c0 7.5 5.2 13.3 11.8 13.3h174.4c6.6 0 11.8-5.8 11.8-13.3V52C207 44.5 201.8 38.7 195.2 38.7zM193.3 156.8H22.7V52.3h170.7V156.8z"/><rect id="digMktScreen50" x="22.7" y="52.3" width="170.7" height="104.5" style="fill:#FFF;opacity:0.5"/><g id="loudSpeaker"><path d="M67.3 91c-3.7 1.3-6.3 4.8-6.3 9s2.7 7.7 6.3 9V91z"/><path d="M146.1 91v18c5 0 9-4 9-9C155.1 95 151.1 91 146.1 91z"/><polygon points="103.1 89.3 101.6 89.3 101.9 110.6 103 110.6 137.9 131.5 137.9 68.5 "/><path d="M89.3 145.2h-7.8c-1.4 0-2.5-1.1-2.5-2.5l-6-23.3c0-1.4 1.1-2.5 2.5-2.5h17.8c1.4 0 2.5 1.4 2.5 3.5s-5.2 7.5-4.8 14.2c0.4 6.7 0.8 8.2 0.8 8.2C91.8 144.1 90.7 145.2 89.3 145.2z"/><path d="M94 115.6H74.9c-3.3 0-6-2.7-6-6V90.4c0-3.3 2.7-6 6-6H94c3.3 0 6 2.7 6 6v19.2C100 112.9 97.3 115.6 94 115.6z"/><path d="M142 136L142 136c-1.4 0-2.5-1.1-2.5-2.5v-67c0-1.4 1.1-2.5 2.5-2.5h0c1.4 0 2.5 1.1 2.5 2.5v67C144.5 134.8 143.4 136 142 136z"/></g></svg>